<svg width="20" height="20" viewBox="0 0 20 20" fill="none" xmlns="http://www.w3.org/2000/svg">
<path d="M15.4652 9.16669H4.14679C3.25379 9.16669 2.52988 9.91288 2.52988 10.8334V16.6667C2.52988 17.5872 3.25379 18.3334 4.14679 18.3334H15.4652C16.3582 18.3334 17.0821 17.5872 17.0821 16.6667V10.8334C17.0821 9.91288 16.3582 9.16669 15.4652 9.16669Z" stroke="#FF3E9B" stroke-width="2" stroke-linecap="round" stroke-linejoin="round"/>
<path d="M5.7637 9.16669V5.83335C5.7637 4.72828 6.18959 3.66848 6.94766 2.88708C7.70574 2.10567 8.73391 1.66669 9.80599 1.66669C10.8781 1.66669 11.9062 2.10567 12.6643 2.88708C13.4224 3.66848 13.8483 4.72828 13.8483 5.83335V9.16669" stroke="#FF3E9B" stroke-width="2" stroke-linecap="round" stroke-linejoin="round"/>
</svg>
