<svg width="1923" height="874" viewBox="0 0 1923 874" fill="none" xmlns="http://www.w3.org/2000/svg">
<path d="M692.942 313.18C713.88 283.474 777.066 225.391 859.011 196.087C961.443 159.458 1056.15 161.986 1147.56 129.895C1220.69 104.222 1308.38 38.5899 1361 2M678.842 312.4C699.669 282.729 762.557 224.74 844.169 195.542C946.184 159.044 1040.55 161.682 1131.59 129.708C1204.42 104.129 1291.72 38.6218 1344.1 2.10613M664.741 311.621C685.457 281.984 748.048 224.09 829.327 194.997C930.926 158.631 1024.95 161.377 1115.62 129.521C1188.15 104.036 1275.05 38.6537 1327.2 2.21226M650.64 310.841C671.246 281.24 733.539 223.439 814.485 194.452C915.668 158.218 1009.35 161.072 1099.65 129.333C1171.89 103.942 1258.39 38.6856 1310.3 2.31839M636.539 310.061C657.034 280.495 719.029 222.789 799.642 193.907C900.408 157.805 993.745 160.768 1083.67 129.146C1155.62 103.849 1241.72 38.7178 1293.4 2.42478M622.438 309.281C642.822 279.75 704.519 222.138 784.8 193.362C885.15 157.392 978.143 160.463 1067.7 128.959C1139.35 103.756 1225.06 38.7498 1276.5 2.53093M608.337 308.501C628.611 279.006 690.01 221.488 769.957 192.817C869.891 156.978 962.542 160.158 1051.73 128.772C1123.08 103.662 1208.39 38.7817 1259.6 2.63706M594.237 307.721C614.399 278.261 675.501 220.837 755.115 192.272C854.633 156.565 946.941 159.854 1035.76 128.584C1106.81 103.569 1191.73 38.8136 1242.7 2.74319M580.135 306.942C600.187 277.516 660.991 220.187 740.272 191.727C839.374 156.152 931.339 159.549 1019.78 128.397C1090.54 103.476 1175.06 38.8459 1225.8 2.84965M566.035 306.162C585.977 276.771 646.483 219.536 725.431 191.182C824.116 155.738 915.739 159.244 1003.81 128.21C1074.27 103.382 1158.4 38.8776 1208.91 2.95552M551.934 305.382C571.764 276.027 631.973 218.886 710.588 190.637C808.857 155.325 900.137 158.94 987.841 128.022C1058 103.289 1141.73 38.9098 1192.01 3.06191M537.833 304.602C557.553 275.282 617.463 218.236 695.746 190.092C793.599 154.912 884.536 158.635 971.869 127.835C1041.74 103.195 1125.07 38.9417 1175.11 3.16809M523.732 303.823C543.34 274.537 602.953 217.585 680.903 189.547C778.339 154.499 868.934 158.33 955.896 127.648C1025.47 103.102 1108.4 38.9739 1158.21 3.27448M509.632 303.043C529.13 273.792 588.445 216.935 666.061 189.002C763.082 154.086 853.333 158.025 939.925 127.46C1009.2 103.008 1091.74 39.0056 1141.31 3.38035M495.53 302.263C514.918 273.048 573.935 216.284 651.218 188.457C747.823 153.673 837.731 157.721 923.952 127.273C992.929 102.915 1075.08 39.0379 1124.41 3.48681M481.43 301.483C500.706 272.303 559.426 215.634 636.376 187.912C732.564 153.259 822.13 157.416 907.98 127.086C976.66 102.822 1058.41 39.0698 1107.51 3.59294M467.329 300.703C486.495 271.558 544.917 214.984 621.534 187.367C717.306 152.846 806.529 157.111 892.008 126.899C960.392 102.728 1041.75 39.1017 1090.61 3.69907M453.228 299.924C472.283 270.814 530.407 214.333 606.692 186.822C702.047 152.433 790.928 156.807 876.036 126.711C944.123 102.635 1025.08 39.1336 1073.71 3.80519M439.127 299.144C458.071 270.069 515.897 213.683 591.849 186.277C686.788 152.02 775.326 156.502 860.064 126.524C927.854 102.542 1008.42 39.1658 1056.81 3.91161M425.027 298.364C443.86 269.324 501.389 213.032 577.008 185.732C671.531 151.606 759.726 156.197 844.093 126.337C911.586 102.448 991.754 39.1975 1039.92 4.01749M410.925 297.584C429.648 268.579 486.879 212.382 562.164 185.187C656.271 151.193 744.124 155.893 828.12 126.15C895.317 102.355 975.088 39.2297 1023.02 4.12387M396.824 296.805C415.436 267.835 472.369 211.732 547.321 184.642C641.012 150.78 728.522 155.588 812.147 125.962C879.048 102.262 958.423 39.2619 1006.12 4.2303M382.723 296.025C401.224 267.09 457.86 211.081 532.479 184.097C625.754 150.367 712.92 155.284 796.175 125.775C862.779 102.168 941.759 39.2939 989.219 4.33645M368.623 295.245C387.013 266.345 443.35 210.431 517.637 183.552C610.495 149.954 697.319 154.979 780.203 125.588C846.511 102.075 925.094 39.3258 972.32 4.4426M354.522 294.465C372.802 265.601 428.841 209.78 502.795 183.007C595.237 149.54 681.718 154.674 764.231 125.4C830.242 101.982 908.43 39.3577 955.421 4.54873M340.42 293.686C358.589 264.856 414.331 209.13 487.952 182.462C579.978 149.127 666.116 154.37 748.259 125.213C813.973 101.888 891.764 39.39 938.522 4.65517M326.32 292.906C344.378 264.111 399.822 208.479 473.11 181.917C564.719 148.714 650.515 154.065 732.287 125.026C797.704 101.795 875.1 39.4219 921.623 4.7613M312.219 292.126C330.166 263.367 385.313 207.829 458.268 181.372C549.461 148.301 634.914 153.76 716.315 124.839C781.436 101.701 858.436 39.4538 904.724 4.86742M298.118 291.346C315.955 262.622 370.804 207.178 443.425 180.827C534.203 147.888 619.313 153.455 700.343 124.651C765.167 101.608 841.771 39.4858 887.825 4.97355M284.017 290.566C301.743 261.877 356.294 206.528 428.582 180.282C518.943 147.475 603.71 153.151 684.37 124.464C748.898 101.515 825.106 39.518 870.926 5.08M269.917 289.786C287.532 261.132 341.785 205.877 413.741 179.737C503.686 147.061 588.11 152.846 668.399 124.277C732.63 101.421 808.442 39.5497 854.028 5.18587M255.816 289.007C273.32 260.388 327.275 205.227 398.898 179.192C488.427 146.648 572.508 152.542 652.426 124.09C716.361 101.328 791.777 39.5819 837.128 5.2923M241.715 288.227C259.108 259.643 312.766 204.577 384.056 178.647C473.168 146.235 556.907 152.237 636.454 123.902C700.092 101.235 775.112 39.6139 820.229 5.39845M227.613 287.447C244.896 258.898 298.256 203.926 369.213 178.102C457.909 145.822 541.305 151.932 620.482 123.715C683.823 101.141 758.447 39.646 803.33 5.50483M213.514 286.667C230.686 258.153 283.748 203.276 354.371 177.557C442.651 145.408 525.705 151.627 604.511 123.528C667.555 101.048 741.784 39.6777 786.432 5.61068M199.412 285.888C216.473 257.409 269.238 202.625 339.528 177.012C427.392 144.995 510.103 151.323 588.538 123.341C651.286 100.955 725.118 39.7099 769.532 5.71713M185.311 285.108C202.262 256.664 254.728 201.975 324.686 176.467C412.134 144.582 494.502 151.018 572.566 123.153C635.017 100.861 708.454 39.7419 752.633 5.82327M171.211 284.328C188.05 255.919 240.219 201.324 309.844 175.922C396.875 144.169 478.9 150.713 556.594 122.966C618.749 100.768 691.789 39.7738 735.734 5.9294M157.11 283.548C173.839 255.175 225.71 200.674 295.002 175.377C381.617 143.756 463.299 150.409 540.622 122.779C602.48 100.674 675.125 39.8058 718.836 6.03559M143.008 282.769C159.627 254.43 211.2 200.024 280.159 174.832C366.358 143.343 447.697 150.104 524.649 122.591C586.211 100.581 658.46 39.838 701.936 6.14197M128.909 281.988C145.416 253.685 196.692 199.373 265.318 174.287C351.1 142.929 432.097 149.799 508.678 122.404C569.943 100.487 641.796 39.8696 685.038 6.24783M114.807 281.209C131.204 252.94 182.182 198.723 250.475 173.742C335.841 142.516 416.495 149.495 492.705 122.217C553.674 100.394 625.131 39.9018 668.138 6.35425M100.706 280.429C116.992 252.196 167.672 198.072 235.632 173.197C320.583 142.103 400.894 149.19 476.733 122.029C537.405 100.301 608.466 39.9338 651.24 6.46042M86.6049 279.649C102.78 251.451 153.162 197.422 220.789 172.652C305.323 141.69 385.292 148.886 460.761 121.842C521.136 100.208 591.801 39.966 634.34 6.56681M72.5051 278.869C88.5696 250.706 138.654 196.771 205.948 172.107C290.066 141.276 369.691 148.581 444.79 121.655C504.868 100.114 575.137 39.9977 617.442 6.6727M58.4035 278.09C74.3573 249.962 124.144 196.121 191.105 171.562C274.806 140.863 354.089 148.276 428.817 121.468C488.599 100.021 558.472 40.0299 600.542 6.77912M44.3029 277.31C60.1458 249.217 109.635 195.471 176.263 171.017C259.548 140.45 338.488 147.971 412.845 121.28C472.33 99.9275 541.808 40.0618 583.644 6.88523M30.2013 276.53C45.9335 248.472 95.1246 194.82 161.42 170.472C244.289 140.037 322.886 147.667 396.872 121.093C456.061 99.8343 525.142 40.094 566.744 6.99167M16.1015 275.75C31.723 247.727 80.6163 194.17 146.578 169.927C229.031 139.623 307.286 147.362 380.901 120.906C439.793 99.7406 508.479 40.1257 549.846 7.09755M2 274.971C17.5107 246.983 66.1062 193.519 131.735 169.382C213.772 139.21 291.684 147.057 364.928 120.719C423.524 99.6475 491.813 40.1579 532.946 7.20395M1253.94 872.18C1274.88 842.474 1338.07 784.391 1420.01 755.087C1522.44 718.458 1617.15 720.987 1708.56 688.895C1781.69 663.222 1869.38 597.59 1922 561M1239.84 871.4C1260.67 841.729 1323.56 783.74 1405.17 754.542C1507.18 718.044 1601.55 720.682 1692.59 688.708C1765.42 663.129 1852.72 597.622 1905.1 561.106M1225.74 870.621C1246.46 840.984 1309.05 783.09 1390.33 753.997C1491.93 717.631 1585.95 720.377 1676.62 688.521C1749.15 663.036 1836.05 597.654 1888.2 561.212M1211.64 869.841C1232.25 840.24 1294.54 782.439 1375.48 753.452C1476.67 717.218 1570.35 720.072 1660.65 688.333C1732.88 662.942 1819.39 597.686 1871.3 561.318M1197.54 869.061C1218.03 839.495 1280.03 781.789 1360.64 752.907C1461.41 716.805 1554.74 719.768 1644.67 688.146C1716.62 662.849 1802.72 597.718 1854.4 561.425M1183.44 868.281C1203.82 838.75 1265.52 781.138 1345.8 752.362C1446.15 716.392 1539.14 719.463 1628.7 687.959C1700.35 662.756 1786.06 597.75 1837.5 561.531M1169.34 867.501C1189.61 838.006 1251.01 780.488 1330.96 751.817C1430.89 715.978 1523.54 719.158 1612.73 687.772C1684.08 662.662 1769.39 597.782 1820.6 561.637M1155.24 866.722C1175.4 837.261 1236.5 779.837 1316.12 751.272C1415.63 715.565 1507.94 718.854 1596.76 687.584C1667.81 662.569 1752.73 597.814 1803.7 561.743M1141.14 865.942C1161.19 836.516 1221.99 779.187 1301.27 750.727C1400.37 715.152 1492.34 718.549 1580.78 687.397C1651.54 662.476 1736.06 597.846 1786.8 561.85M1127.04 865.162C1146.98 835.771 1207.48 778.536 1286.43 750.182C1385.12 714.739 1476.74 718.244 1564.81 687.21C1635.27 662.382 1719.4 597.878 1769.91 561.956M1112.93 864.382C1132.76 835.027 1192.97 777.886 1271.59 749.637C1369.86 714.326 1461.14 717.94 1548.84 687.023C1619 662.289 1702.73 597.91 1753.01 562.062M1098.83 863.602C1118.55 834.282 1178.46 777.236 1256.75 749.092C1354.6 713.912 1445.54 717.635 1532.87 686.835C1602.74 662.195 1686.07 597.942 1736.11 562.168M1084.73 862.823C1104.34 833.537 1163.95 776.585 1241.9 748.547C1339.34 713.499 1429.93 717.33 1516.9 686.648C1586.47 662.102 1669.4 597.974 1719.21 562.275M1070.63 862.043C1090.13 832.792 1149.44 775.935 1227.06 748.002C1324.08 713.086 1414.33 717.025 1500.92 686.46C1570.2 662.008 1652.74 598.006 1702.31 562.38M1056.53 861.263C1075.92 832.048 1134.93 775.285 1212.22 747.457C1308.82 712.673 1398.73 716.721 1484.95 686.273C1553.93 661.915 1636.08 598.038 1685.41 562.487M1042.43 860.483C1061.71 831.303 1120.43 774.634 1197.38 746.912C1293.56 712.259 1383.13 716.416 1468.98 686.086C1537.66 661.822 1619.41 598.07 1668.51 562.593M1028.33 859.703C1047.49 830.558 1105.92 773.984 1182.53 746.367C1278.31 711.846 1367.53 716.112 1453.01 685.899C1521.39 661.728 1602.75 598.102 1651.61 562.699M1014.23 858.924C1033.28 829.814 1091.41 773.333 1167.69 745.822C1263.05 711.433 1351.93 715.807 1437.04 685.711C1505.12 661.635 1586.08 598.134 1634.71 562.805M1000.13 858.144C1019.07 829.069 1076.9 772.683 1152.85 745.277C1247.79 711.02 1336.33 715.502 1421.06 685.524C1488.85 661.542 1569.42 598.166 1617.81 562.912M986.027 857.364C1004.86 828.324 1062.39 772.032 1138.01 744.732C1232.53 710.606 1320.73 715.197 1405.09 685.337C1472.59 661.448 1552.75 598.198 1600.92 563.018M971.925 856.584C990.648 827.579 1047.88 771.382 1123.16 744.187C1217.27 710.193 1305.12 714.893 1389.12 685.15C1456.32 661.355 1536.09 598.23 1584.02 563.124M957.824 855.805C976.436 826.835 1033.37 770.732 1108.32 743.642C1202.01 709.78 1289.52 714.588 1373.15 684.963C1440.05 661.262 1519.42 598.262 1567.12 563.23M943.723 855.025C962.224 826.09 1018.86 770.081 1093.48 743.097C1186.75 709.367 1273.92 714.284 1357.18 684.775C1423.78 661.168 1502.76 598.294 1550.22 563.336M929.623 854.245C948.013 825.345 1004.35 769.431 1078.64 742.552C1171.5 708.954 1258.32 713.979 1341.2 684.588C1407.51 661.075 1486.09 598.326 1533.32 563.443M915.522 853.465C933.802 824.601 989.841 768.78 1063.79 742.007C1156.24 708.541 1242.72 713.674 1325.23 684.401C1391.24 660.982 1469.43 598.358 1516.42 563.549M901.42 852.686C919.589 823.856 975.331 768.13 1048.95 741.462C1140.98 708.128 1227.12 713.37 1309.26 684.213C1374.97 660.888 1452.76 598.39 1499.52 563.655M887.32 851.906C905.378 823.111 960.822 767.479 1034.11 740.917C1125.72 707.714 1211.51 713.065 1293.29 684.026C1358.7 660.795 1436.1 598.422 1482.62 563.761M873.219 851.126C891.166 822.367 946.313 766.829 1019.27 740.372C1110.46 707.301 1195.91 712.76 1277.31 683.839C1342.44 660.702 1419.44 598.454 1465.72 563.867M859.118 850.346C876.955 821.622 931.804 766.178 1004.43 739.827C1095.2 706.888 1180.31 712.456 1261.34 683.651C1326.17 660.608 1402.77 598.486 1448.83 563.974M845.017 849.567C862.743 820.877 917.294 765.528 989.582 739.282C1079.94 706.475 1164.71 712.151 1245.37 683.464C1309.9 660.515 1386.11 598.518 1431.93 564.08M830.917 848.786C848.532 820.132 902.785 764.877 974.741 738.737C1064.69 706.061 1149.11 711.846 1229.4 683.277C1293.63 660.421 1369.44 598.55 1415.03 564.186M816.815 848.007C834.32 819.388 888.275 764.227 959.898 738.192C1049.43 705.648 1133.51 711.542 1213.43 683.09C1277.36 660.328 1352.78 598.582 1398.13 564.292M802.715 847.227C820.108 818.643 873.766 763.577 945.056 737.647C1034.17 705.235 1117.91 711.237 1197.45 682.902C1261.09 660.235 1336.11 598.614 1381.23 564.398M788.613 846.447C805.896 817.898 859.256 762.926 930.213 737.102C1018.91 704.822 1102.3 710.932 1181.48 682.715C1244.82 660.142 1319.45 598.646 1364.33 564.505M774.513 845.667C791.686 817.153 844.748 762.276 915.371 736.557C1003.65 704.408 1086.7 710.627 1165.51 682.528C1228.56 660.048 1302.78 598.678 1347.43 564.611M760.412 844.888C777.473 816.409 830.238 761.625 900.528 736.012C988.392 703.995 1071.1 710.323 1149.54 682.341C1212.29 659.955 1286.12 598.71 1330.53 564.717M746.311 844.108C763.262 815.664 815.728 760.975 885.686 735.467C973.134 703.582 1055.5 710.018 1133.57 682.153C1196.02 659.861 1269.45 598.742 1313.63 564.823M732.211 843.328C749.05 814.919 801.219 760.325 870.844 734.922C957.875 703.169 1039.9 709.713 1117.59 681.966C1179.75 659.768 1252.79 598.774 1296.73 564.929M718.11 842.548C734.839 814.175 786.71 759.674 856.002 734.377C942.617 702.756 1024.3 709.409 1101.62 681.779C1163.48 659.674 1236.12 598.806 1279.84 565.036M704.008 841.769C720.627 813.43 772.2 759.024 841.159 733.832C927.358 702.343 1008.7 709.104 1085.65 681.591C1147.21 659.581 1219.46 598.838 1262.94 565.142M689.909 840.988C706.416 812.685 757.692 758.373 826.318 733.287C912.1 701.929 993.097 708.799 1069.68 681.404C1130.94 659.487 1202.8 598.87 1246.04 565.248M675.807 840.209C692.204 811.94 743.182 757.723 811.475 732.742C896.841 701.516 977.495 708.495 1053.71 681.217C1114.67 659.394 1186.13 598.902 1229.14 565.354M661.706 839.429C677.992 811.196 728.672 757.072 796.632 732.197C881.582 701.103 961.894 708.19 1037.73 681.029C1098.41 659.301 1169.47 598.934 1212.24 565.46M647.605 838.649C663.78 810.451 714.162 756.422 781.789 731.652C866.323 700.69 946.292 707.886 1021.76 680.842C1082.14 659.208 1152.8 598.966 1195.34 565.567M633.505 837.869C649.57 809.706 699.654 755.771 766.948 731.107C851.066 700.276 930.691 707.581 1005.79 680.655C1065.87 659.114 1136.14 598.998 1178.44 565.673M619.404 837.09C635.357 808.962 685.144 755.121 752.105 730.562C835.806 699.863 915.089 707.276 989.817 680.468C1049.6 659.021 1119.47 599.03 1161.54 565.779M605.303 836.31C621.146 808.217 670.635 754.471 737.263 730.017C820.548 699.45 899.488 706.971 973.845 680.28C1033.33 658.928 1102.81 599.062 1144.64 565.885M591.201 835.53C606.934 807.472 656.125 753.82 722.42 729.472C805.289 699.037 883.886 706.667 957.872 680.093C1017.06 658.834 1086.14 599.094 1127.74 565.992M577.102 834.75C592.723 806.727 641.616 753.17 707.578 728.927C790.031 698.623 868.286 706.362 941.901 679.906C1000.79 658.741 1069.48 599.126 1110.85 566.098M563 833.971C578.511 805.983 627.106 752.519 692.735 728.382C774.772 698.21 852.684 706.057 925.928 679.719C984.524 658.647 1052.81 599.158 1093.95 566.204" stroke="white" stroke-width="3"/>
</svg>
