<svg width="4103" height="1260" viewBox="0 0 4103 1260" fill="none" xmlns="http://www.w3.org/2000/svg">
<path d="M1477.45 452.436C1522.16 409.627 1657.09 325.924 1832.08 283.695C2050.81 230.909 2253.05 234.553 2448.26 188.307C2604.42 151.311 2791.67 56.729 2904.03 4M1447.34 451.312C1491.82 408.553 1626.11 324.986 1800.39 282.91C2018.23 230.314 2219.74 234.114 2414.15 188.038C2569.68 151.176 2756.09 56.775 2867.94 4.15294M1417.23 450.188C1461.47 407.48 1595.13 324.049 1768.69 282.124C1985.65 229.718 2186.42 233.675 2380.04 187.768C2534.94 151.041 2720.5 56.821 2831.86 4.30588M1387.12 449.064C1431.12 406.407 1564.14 323.112 1737 281.339C1953.06 229.122 2153.11 233.236 2345.94 187.498C2500.2 150.907 2684.92 56.867 2795.77 4.45883M1357.01 447.941C1400.77 405.334 1533.16 322.175 1705.3 280.554C1920.48 228.527 2119.79 232.797 2311.83 187.228C2465.45 150.773 2649.33 56.9133 2759.68 4.61214M1326.9 446.817C1370.42 404.261 1502.17 321.237 1673.61 279.768C1887.9 227.932 2086.48 232.358 2277.72 186.958C2430.71 150.638 2613.74 56.9594 2723.6 4.76511M1296.79 445.693C1340.08 403.187 1471.19 320.3 1641.91 278.983C1855.31 227.336 2053.16 231.919 2243.61 186.688C2395.97 150.503 2578.16 57.0054 2687.51 4.91806M1266.67 444.569C1309.73 402.114 1440.21 319.362 1610.22 278.197C1822.73 226.741 2019.85 231.48 2209.51 186.418C2361.23 150.369 2542.57 57.0514 2651.43 5.071M1236.56 443.446C1279.38 401.041 1409.22 318.425 1578.52 277.412C1790.15 226.145 1986.53 231.041 2175.4 186.148C2326.49 150.234 2506.98 57.0979 2615.34 5.22442M1206.45 442.322C1249.04 399.967 1378.24 317.488 1546.83 276.626C1757.56 225.55 1953.22 230.601 2141.29 185.878C2291.75 150.099 2471.4 57.1436 2579.25 5.37699M1176.34 441.198C1218.69 398.895 1347.26 316.55 1515.13 275.841C1724.98 224.954 1919.9 230.163 2107.18 185.609C2257.01 149.965 2435.81 57.1899 2543.17 5.5303M1146.23 440.074C1188.34 397.821 1316.27 315.613 1483.44 275.056C1692.4 224.359 1886.58 229.724 2073.08 185.339C2222.27 149.831 2400.23 57.236 2507.08 5.68332M1116.12 438.951C1157.99 396.748 1285.29 314.676 1451.74 274.271C1659.81 223.764 1853.27 229.285 2038.97 185.069C2187.53 149.696 2364.64 57.2824 2470.99 5.83663M1086.01 437.827C1127.64 395.675 1254.31 313.738 1420.05 273.485C1627.23 223.168 1819.96 228.845 2004.86 184.799C2152.79 149.561 2329.06 57.328 2434.91 5.9892M1055.89 436.703C1097.29 394.602 1223.32 312.801 1388.35 272.7C1594.65 222.572 1786.64 228.407 1970.76 184.529C2118.05 149.427 2293.47 57.3746 2398.82 6.14262M1025.78 435.58C1066.95 393.529 1192.34 311.864 1356.66 271.914C1562.06 221.977 1753.32 227.967 1936.65 184.259C2083.31 149.292 2257.88 57.4205 2362.73 6.29556M995.673 434.456C1036.6 392.455 1161.36 310.926 1324.97 271.129C1529.48 221.381 1720.01 227.528 1902.54 183.989C2048.57 149.158 2222.3 57.4665 2326.65 6.4485M965.562 433.332C1006.25 391.382 1130.37 309.989 1293.27 270.343C1496.9 220.786 1686.69 227.089 1868.44 183.719C2013.83 149.023 2186.71 57.5125 2290.56 6.60142M935.45 432.209C975.904 390.309 1099.39 309.052 1261.58 269.558C1464.31 220.191 1653.38 226.65 1834.33 183.449C1979.09 148.889 2151.12 57.559 2254.47 6.75479M905.341 431.084C945.558 389.235 1068.41 308.114 1229.88 268.772C1431.73 219.595 1620.06 226.211 1800.22 183.179C1944.35 148.754 2115.54 57.6046 2218.39 6.90736M875.228 429.961C915.209 388.163 1037.42 307.177 1198.19 267.987C1399.14 219 1586.75 225.772 1766.11 182.91C1909.61 148.62 2079.95 57.651 2182.3 7.06068M845.115 428.837C884.86 387.09 1006.44 306.24 1166.49 267.202C1366.56 218.404 1553.43 225.333 1732.01 182.64C1874.87 148.485 2044.37 57.6974 2146.21 7.21404M815.004 427.714C854.512 386.016 975.452 305.303 1134.8 266.417C1333.98 217.809 1520.11 224.894 1697.9 182.37C1840.13 148.351 2008.78 57.7435 2110.13 7.36701M784.893 426.59C824.165 384.943 944.469 304.365 1103.1 265.631C1301.39 217.213 1486.8 224.455 1663.79 182.1C1805.39 148.216 1973.19 57.7895 2074.04 7.51998M754.783 425.466C793.817 383.87 913.486 303.428 1071.41 264.846C1268.81 216.618 1453.48 224.016 1629.68 181.83C1770.65 148.081 1937.61 57.8355 2037.96 7.67292M724.67 424.343C763.468 382.797 882.501 302.491 1039.71 264.061C1236.23 216.023 1420.17 223.577 1595.58 181.56C1735.9 147.947 1902.02 57.882 2001.87 7.82631M694.559 423.219C733.121 381.724 851.517 301.553 1008.02 263.275C1203.64 215.427 1386.85 223.138 1561.47 181.291C1701.16 147.813 1866.44 57.928 1965.78 7.97926M664.448 422.095C702.773 380.65 820.534 300.616 976.323 262.49C1171.06 214.831 1353.54 222.699 1527.36 181.021C1666.42 147.678 1830.85 57.974 1929.7 8.13219M634.337 420.971C672.426 379.577 789.551 299.679 944.629 261.704C1138.48 214.236 1320.22 222.26 1493.26 180.751C1631.68 147.543 1795.26 58.02 1893.61 8.28513M604.225 419.848C642.077 378.504 758.566 298.742 912.933 260.919C1105.89 213.641 1286.91 221.821 1459.15 180.481C1596.94 147.409 1759.68 58.0665 1857.52 8.43852M574.116 418.723C611.731 377.43 727.584 297.804 881.24 260.133C1073.31 213.045 1253.59 221.381 1425.04 180.211C1562.2 147.274 1724.09 58.1122 1821.44 8.5911M544.003 417.6C581.382 376.358 696.599 296.867 849.544 259.348C1040.73 212.45 1220.27 220.943 1390.93 179.941C1527.46 147.14 1688.51 58.1586 1785.35 8.74447M513.892 416.476C551.035 375.284 665.616 295.929 817.85 258.563C1008.14 211.854 1186.96 220.503 1356.83 179.671C1492.72 147.005 1652.92 58.2046 1749.26 8.89744M483.779 415.353C520.685 374.211 634.631 294.992 786.154 257.777C975.557 211.259 1153.64 220.065 1322.72 179.401C1457.98 146.871 1617.33 58.251 1713.18 9.05074M453.67 414.228C490.34 373.138 603.65 294.055 754.461 256.992C942.976 210.663 1120.33 219.625 1288.61 179.131C1423.24 146.736 1581.75 58.2966 1677.09 9.20328M423.558 413.105C459.991 372.065 572.665 293.117 722.765 256.207C910.391 210.068 1087.01 219.186 1254.5 178.862C1388.5 146.602 1546.16 58.3431 1641 9.35668M393.447 411.981C429.643 370.992 541.681 292.18 691.071 255.421C877.808 209.472 1053.7 218.747 1220.4 178.592C1353.76 146.467 1510.58 58.3891 1604.92 9.50965M363.336 410.857C399.296 369.918 510.698 291.243 659.377 254.636C845.225 208.877 1020.38 218.308 1186.29 178.322C1319.02 146.332 1474.99 58.4351 1568.83 9.66259M333.225 409.734C368.949 368.845 479.715 290.305 627.682 253.85C812.642 208.281 987.068 217.869 1152.18 178.052C1284.28 146.198 1457.16 50.6656 1550.5 2M303.112 408.61C338.599 367.772 448.73 289.368 595.986 253.065C780.057 207.686 953.751 217.43 1118.08 177.782C1249.54 146.063 1403.82 58.5276 1496.66 9.96892M273.003 407.486C308.254 366.698 417.748 288.43 564.294 252.279C747.476 207.09 920.438 216.991 1083.97 177.512C1214.8 145.928 1368.23 58.5732 1460.57 10.1215M242.891 406.362C277.905 365.625 386.763 287.493 532.598 251.494C714.891 206.495 887.121 216.552 1049.86 177.242C1180.06 145.794 1332.65 58.6196 1424.49 10.2748M212.78 405.239C247.557 364.552 355.78 286.556 500.903 250.709C682.308 205.899 853.806 216.113 1015.76 176.972C1145.32 145.66 1297.06 58.6657 1388.4 10.4278M182.667 404.115C217.208 363.479 324.795 285.619 469.207 249.923C649.723 205.304 820.489 215.674 981.647 176.702C1110.57 145.525 1261.47 58.712 1352.31 10.5811M152.558 402.991C186.862 362.406 293.814 284.681 437.515 249.138C617.141 204.708 787.176 215.234 947.542 176.432C1075.84 145.39 1225.89 58.7577 1316.23 10.7337M122.445 401.868C156.513 361.333 262.829 283.744 405.819 248.353C584.557 204.113 753.859 214.796 913.434 176.163C1041.09 145.256 1190.3 58.8042 1280.14 10.8871M92.3344 400.744C126.166 360.259 231.845 282.807 374.125 247.567C551.974 203.517 720.544 214.356 879.327 175.893C1006.35 145.121 1154.72 58.8501 1244.05 11.04M62.2217 399.62C95.8166 359.187 200.86 281.87 342.428 246.782C519.389 202.922 687.227 213.918 845.218 175.623C971.611 144.987 1119.13 58.8966 1207.97 11.1934M32.1127 398.496C65.4711 358.113 169.879 280.932 310.736 245.996C486.807 202.326 653.914 213.478 811.113 175.353C936.873 144.852 1083.54 58.9423 1171.88 11.346M2 397.373C35.1219 357.04 138.894 279.995 279.04 245.211C454.222 201.731 620.597 213.039 777.005 175.083C902.131 144.718 1047.96 58.9887 1135.79 11.4993M2675.42 1258C2720.13 1215.19 2855.06 1131.49 3030.05 1089.26C3248.79 1036.47 3451.03 1040.12 3646.23 993.872C3802.39 956.875 3989.64 862.293 4102 809.564M2645.31 1256.88C2689.79 1214.12 2824.08 1130.55 2998.36 1088.47C3216.2 1035.88 3417.71 1039.68 3612.12 993.602C3767.65 956.74 3954.06 862.339 4065.91 809.717M2615.2 1255.75C2659.44 1213.04 2793.1 1129.61 2966.66 1087.69C3183.62 1035.28 3384.39 1039.24 3578.01 993.332C3732.91 956.606 3918.47 862.385 4029.83 809.87M2585.09 1254.63C2629.09 1211.97 2762.11 1128.68 2934.97 1086.9C3151.04 1034.69 3351.08 1038.8 3543.91 993.062C3698.17 956.471 3882.89 862.431 3993.74 810.023M2554.98 1253.51C2598.74 1210.9 2731.13 1127.74 2903.27 1086.12C3118.45 1034.09 3317.76 1038.36 3509.8 992.792C3663.43 956.337 3847.3 862.478 3957.65 810.176M2524.87 1252.38C2568.4 1209.82 2700.15 1126.8 2871.58 1085.33C3085.87 1033.5 3284.45 1037.92 3475.69 992.522C3628.69 956.202 3811.71 862.524 3921.57 810.329M2494.76 1251.26C2538.05 1208.75 2669.16 1125.86 2839.88 1084.55C3053.28 1032.9 3251.13 1037.48 3441.58 992.252C3593.95 956.068 3776.13 862.57 3885.48 810.482M2464.65 1250.13C2507.7 1207.68 2638.18 1124.93 2808.19 1083.76C3020.7 1032.3 3217.82 1037.04 3407.48 991.982C3559.21 955.933 3740.54 862.616 3849.4 810.635M2434.53 1249.01C2477.35 1206.61 2607.19 1123.99 2776.49 1082.98C2988.12 1031.71 3184.5 1036.61 3373.37 991.713C3524.46 955.799 3704.95 862.662 3813.31 810.789M2404.42 1247.89C2447.01 1205.53 2576.21 1123.05 2744.8 1082.19C2955.54 1031.11 3151.19 1036.17 3339.26 991.442C3489.73 955.664 3669.37 862.708 3777.22 810.941M2374.31 1246.76C2416.66 1204.46 2545.23 1122.11 2713.1 1081.41C2922.95 1030.52 3117.87 1035.73 3305.16 991.173C3454.98 955.529 3633.78 862.754 3741.14 811.095M2344.2 1245.64C2386.31 1203.39 2514.24 1121.18 2681.41 1080.62C2890.37 1029.92 3084.56 1035.29 3271.05 990.903C3420.24 955.395 3598.2 862.8 3705.05 811.248M2314.09 1244.52C2355.96 1202.31 2483.26 1120.24 2649.71 1079.83C2857.78 1029.33 3051.24 1034.85 3236.94 990.633C3385.5 955.26 3562.61 862.847 3668.96 811.401M2283.98 1243.39C2325.62 1201.24 2452.28 1119.3 2618.02 1079.05C2825.2 1028.73 3017.93 1034.41 3202.84 990.363C3350.76 955.125 3527.03 862.892 3632.88 811.553M2253.87 1242.27C2295.27 1200.17 2421.29 1118.37 2586.33 1078.26C2792.62 1028.14 2984.61 1033.97 3168.73 990.093C3316.02 954.991 3491.44 862.939 3596.79 811.707M2223.75 1241.14C2264.92 1199.09 2390.31 1117.43 2554.63 1077.48C2760.03 1027.54 2951.29 1033.53 3134.62 989.823C3281.28 954.857 3455.85 862.985 3560.7 811.86M2193.64 1240.02C2234.57 1198.02 2359.33 1116.49 2522.94 1076.69C2727.45 1026.95 2917.98 1033.09 3100.51 989.553C3246.54 954.722 3420.27 863.031 3524.62 812.013M2163.53 1238.9C2204.22 1196.95 2328.34 1115.55 2491.24 1075.91C2694.87 1026.35 2884.66 1032.65 3066.41 989.283C3211.8 954.587 3384.68 863.077 3488.53 812.166M2133.42 1237.77C2173.87 1195.87 2297.36 1114.62 2459.55 1075.12C2662.28 1025.75 2851.35 1032.21 3032.3 989.014C3177.06 954.453 3349.1 863.123 3452.44 812.319M2103.31 1236.65C2143.53 1194.8 2266.38 1113.68 2427.85 1074.34C2629.7 1025.16 2818.03 1031.77 2998.19 988.743C3142.32 954.318 3313.51 863.169 3416.36 812.472M2073.2 1235.53C2113.18 1193.73 2235.39 1112.74 2396.16 1073.55C2597.12 1024.56 2784.72 1031.34 2964.08 988.474C3107.58 954.184 3277.92 863.215 3380.27 812.625M2043.09 1234.4C2082.83 1192.65 2204.41 1111.8 2364.46 1072.77C2564.53 1023.97 2751.4 1030.9 2929.98 988.204C3072.84 954.05 3242.34 863.262 3344.18 812.778M2012.98 1233.28C2052.48 1191.58 2173.42 1110.87 2332.77 1071.98C2531.95 1023.37 2718.09 1030.46 2895.87 987.934C3038.1 953.915 3206.75 863.308 3308.1 812.931M1982.86 1232.15C2022.14 1190.51 2142.44 1109.93 2301.07 1071.2C2499.36 1022.78 2684.77 1030.02 2861.76 987.664C3003.36 953.78 3171.17 863.354 3272.01 813.084M1952.75 1231.03C1991.79 1189.43 2111.46 1108.99 2269.38 1070.41C2466.78 1022.18 2651.45 1029.58 2827.66 987.394C2968.62 953.646 3135.58 863.4 3235.93 813.237M1922.64 1229.91C1961.44 1188.36 2080.47 1108.06 2237.68 1069.62C2434.2 1021.59 2618.14 1029.14 2793.55 987.125C2933.87 953.511 3099.99 863.446 3199.84 813.391M1892.53 1228.78C1931.09 1187.29 2049.49 1107.12 2205.99 1068.84C2401.61 1020.99 2584.82 1028.7 2759.44 986.855C2899.13 953.377 3064.41 863.492 3163.75 813.544M1862.42 1227.66C1900.74 1186.21 2018.51 1106.18 2174.29 1068.05C2369.03 1020.4 2551.51 1028.26 2725.33 986.585C2864.39 953.242 3028.82 863.538 3127.67 813.696M1832.31 1226.54C1870.4 1185.14 1987.52 1105.24 2142.6 1067.27C2336.45 1019.8 2518.19 1027.82 2691.23 986.315C2829.65 953.108 2993.24 863.584 3091.58 813.849M1802.2 1225.41C1840.05 1184.07 1956.54 1104.31 2110.9 1066.48C2303.86 1019.2 2484.88 1027.39 2657.12 986.045C2794.91 952.973 2957.65 863.631 3055.49 814.003M1772.09 1224.29C1809.7 1182.99 1925.56 1103.37 2079.21 1065.7C2271.28 1018.61 2451.56 1026.95 2623.01 985.775C2760.17 952.838 2922.06 863.676 3019.41 814.155M1741.97 1223.16C1779.35 1181.92 1894.57 1102.43 2047.52 1064.91C2238.7 1018.01 2418.25 1026.51 2588.9 985.505C2725.43 952.704 2886.48 863.723 2983.32 814.309M1711.86 1222.04C1749.01 1180.85 1863.59 1101.49 2015.82 1064.13C2206.11 1017.42 2384.93 1026.07 2554.8 985.235C2690.69 952.569 2850.89 863.769 2947.23 814.462M1681.75 1220.92C1718.66 1179.78 1832.6 1100.56 1984.12 1063.34C2173.53 1016.82 2351.61 1025.63 2520.69 984.966C2655.95 952.435 2815.3 863.815 2911.15 814.615M1651.64 1219.79C1688.31 1178.7 1801.62 1099.62 1952.43 1062.56C2140.95 1016.23 2318.3 1025.19 2486.58 984.695C2621.21 952.3 2779.72 863.861 2875.06 814.768M1621.53 1218.67C1657.96 1177.63 1770.64 1098.68 1920.74 1061.77C2108.36 1015.63 2284.98 1024.75 2452.48 984.426C2586.47 952.166 2744.13 863.907 2838.97 814.921M1591.42 1217.55C1627.61 1176.56 1739.65 1097.74 1889.04 1060.99C2075.78 1015.04 2251.67 1024.31 2418.37 984.156C2551.73 952.031 2708.55 863.953 2802.89 815.074M1561.31 1216.42C1597.27 1175.48 1708.67 1096.81 1857.35 1060.2C2043.2 1014.44 2218.35 1023.87 2384.26 983.886C2516.99 951.897 2672.96 863.999 2766.8 815.227M1531.2 1215.3C1566.92 1174.41 1677.69 1095.87 1825.65 1059.41C2010.61 1013.85 2185.04 1023.43 2350.16 983.616C2482.25 951.762 2637.38 864.045 2730.72 815.38M1501.08 1214.17C1536.57 1173.34 1646.7 1094.93 1793.96 1058.63C1978.03 1013.25 2151.72 1022.99 2316.05 983.346C2447.51 951.628 2601.79 864.092 2694.63 815.533M1470.97 1213.05C1506.22 1172.26 1615.72 1093.99 1762.26 1057.84C1945.45 1012.65 2118.41 1022.55 2281.94 983.076C2412.77 951.493 2566.2 864.137 2658.54 815.686M1440.86 1211.93C1475.88 1171.19 1584.73 1093.06 1730.57 1057.06C1912.86 1012.06 2085.09 1022.12 2247.83 982.806C2378.03 951.358 2530.62 864.184 2622.46 815.839M1410.75 1210.8C1445.53 1170.12 1553.75 1092.12 1698.87 1056.27C1880.28 1011.46 2051.78 1021.68 2213.73 982.536C2343.29 951.224 2495.03 864.23 2586.37 815.992M1380.64 1209.68C1415.18 1169.04 1522.77 1091.18 1667.18 1055.49C1847.69 1010.87 2018.46 1021.24 2179.62 982.267C2308.54 951.09 2459.44 864.276 2550.28 816.145M1350.53 1208.56C1384.83 1167.97 1491.78 1090.25 1635.49 1054.7C1815.11 1010.27 1985.15 1020.8 2145.51 981.996C2273.81 950.954 2423.86 864.322 2514.2 816.298M1320.42 1207.43C1354.48 1166.9 1460.8 1089.31 1603.79 1053.92C1782.53 1009.68 1951.83 1020.36 2111.4 981.727C2239.06 950.82 2388.27 864.368 2478.11 816.451M1290.31 1206.31C1324.14 1165.82 1429.82 1088.37 1572.1 1053.13C1749.94 1009.08 1918.51 1019.92 2077.3 981.457C2204.32 950.686 2352.69 864.414 2442.02 816.604M1260.19 1205.18C1293.79 1164.75 1398.83 1087.43 1540.4 1052.35C1717.36 1008.49 1885.2 1019.48 2043.19 981.187C2169.58 950.551 2317.1 864.461 2405.94 816.758M1230.08 1204.06C1263.44 1163.68 1367.85 1086.5 1508.71 1051.56C1684.78 1007.89 1851.88 1019.04 2009.08 980.917C2134.84 950.416 2281.52 864.506 2369.85 816.91M1199.97 1202.94C1233.09 1162.6 1336.86 1085.56 1477.01 1050.78C1652.19 1007.3 1818.57 1018.6 1974.98 980.647C2100.1 950.282 2271.66 851.489 2359.5 804" stroke="white" stroke-width="3"/>
</svg>
